<svg id="Layer_1" data-name="Layer 1" xmlns="http://www.w3.org/2000/svg" viewBox="0 0 196.03 78.92"><defs><style>.cls-1{fill:#4871ad;}</style></defs><path class="cls-1" d="M75.94,21.82v2.89c0,3.48-1.74,5.47-5.09,5.47s-5.09-2-5.09-5.47V13.41c0-3.48,1.74-5.47,5.09-5.47s5.09,2,5.09,5.47v2.11H72.71V13.19c0-1.55-.68-2.14-1.77-2.14s-1.77.59-1.77,2.14V24.93c0,1.55.69,2.11,1.77,2.11s1.77-.56,1.77-2.11V21.82Z" transform="translate(-6.36 -3.6)"/><path class="cls-1" d="M89.7,29.93H86.25L85.66,26H81.47l-.59,3.94H77.74L81.22,8.19h5ZM81.9,23h3.29L83.58,12h-.06Z" transform="translate(-6.36 -3.6)"/><path class="cls-1" d="M99,29.93a6.62,6.62,0,0,1-.31-2.67V23.84c0-2-.68-2.76-2.23-2.76H95.32v8.85H91.9V8.19h5.15c3.54,0,5.07,1.65,5.07,5V14.9c0,2.24-.72,3.66-2.24,4.38v.06c1.71.71,2.27,2.33,2.27,4.6v3.35a6.43,6.43,0,0,0,.37,2.64ZM95.32,11.3V18h1.33c1.27,0,2-.55,2-2.29V13.53c0-1.55-.53-2.23-1.74-2.23Z" transform="translate(-6.36 -3.6)"/><path class="cls-1" d="M104,8.19h10.56V11.3H111V29.93h-3.41V11.3H104Z" transform="translate(-6.36 -3.6)"/><path class="cls-1" d="M116.39,13.41c0-3.48,1.84-5.47,5.19-5.47s5.19,2,5.19,5.47v11.3c0,3.48-1.84,5.47-5.19,5.47s-5.19-2-5.19-5.47Zm8.85-9.81L122.08,7h-2.3l2.11-3.44Zm-5.43,21.33c0,1.55.68,2.14,1.77,2.14s1.77-.59,1.77-2.14V13.19c0-1.55-.68-2.14-1.77-2.14s-1.77.59-1.77,2.14Z" transform="translate(-6.36 -3.6)"/><path class="cls-1" d="M136.73,29.93a6.62,6.62,0,0,1-.31-2.67V23.84c0-2-.68-2.76-2.23-2.76H133v8.85h-3.42V8.19h5.15c3.54,0,5.07,1.65,5.07,5V14.9c0,2.24-.72,3.66-2.24,4.38v.06c1.71.71,2.27,2.33,2.27,4.6v3.35a6.43,6.43,0,0,0,.37,2.64ZM133,11.3V18h1.33c1.27,0,2-.55,2-2.29V13.53c0-1.55-.53-2.23-1.74-2.23Z" transform="translate(-6.36 -3.6)"/><path class="cls-1" d="M142.69,8.19h3.42V29.93h-3.42Z" transform="translate(-6.36 -3.6)"/><path class="cls-1" d="M148.93,13.41c0-3.48,1.83-5.47,5.19-5.47s5.18,2,5.18,5.47v11.3c0,3.48-1.83,5.47-5.18,5.47s-5.19-2-5.19-5.47Zm3.42,11.52c0,1.55.68,2.14,1.77,2.14s1.77-.59,1.77-2.14V13.19c0-1.55-.69-2.14-1.77-2.14s-1.77.59-1.77,2.14Z" transform="translate(-6.36 -3.6)"/><path class="cls-1" d="M166.72,7.94c3.33,0,5,2,5,5.47v.68h-3.23v-.9c0-1.55-.62-2.14-1.7-2.14s-1.71.59-1.71,2.14.68,2.77,2.92,4.72c2.85,2.52,3.75,4.32,3.75,6.8,0,3.48-1.73,5.47-5.09,5.47s-5.09-2-5.09-5.47V23.38h3.23v1.55c0,1.55.68,2.11,1.77,2.11s1.77-.56,1.77-2.11-.68-2.76-2.92-4.72c-2.86-2.52-3.76-4.32-3.76-6.8C161.69,9.93,163.4,7.94,166.72,7.94Z" transform="translate(-6.36 -3.6)"/><path class="cls-1" d="M179.79,8.19h5.41c3.41,0,5.09,1.9,5.09,5.37v11c0,3.47-1.68,5.37-5.09,5.37h-5.41Zm3.42,3.11V26.82h1.92c1.09,0,1.74-.55,1.74-2.11V13.41c0-1.55-.65-2.11-1.74-2.11Z" transform="translate(-6.36 -3.6)"/><path class="cls-1" d="M196.5,17.35h4.69v3.11H196.5v6.36h5.9v3.11h-9.32V8.19h9.32V11.3h-5.9Z" transform="translate(-6.36 -3.6)"/><path class="cls-1" d="M77.66,40.77v3.32c0,4.09-2,6.32-6,6.32h-1.9V60h-4V34.46h5.91C75.69,34.46,77.66,36.68,77.66,40.77Zm-7.89-2.66v8.65h1.9c1.28,0,2-.59,2-2.41V40.52c0-1.83-.69-2.41-2-2.41Z" transform="translate(-6.36 -3.6)"/><path class="cls-1" d="M87.22,60a8.1,8.1,0,0,1-.36-3.14v-4c0-2.37-.8-3.24-2.63-3.24H82.84V60h-4V34.46h6.06c4.16,0,6,1.93,6,5.87v2c0,2.63-.84,4.31-2.63,5.15v.07c2,.84,2.67,2.74,2.67,5.41v3.94a7.55,7.55,0,0,0,.43,3.1Zm-4.38-21.9V46h1.57c1.5,0,2.41-.66,2.41-2.71V40.74c0-1.83-.62-2.63-2-2.63Z" transform="translate(-6.36 -3.6)"/><path class="cls-1" d="M92.48,40.59c0-4.09,2.16-6.43,6.1-6.43s6.1,2.34,6.1,6.43V53.88c0,4.09-2.16,6.42-6.1,6.42s-6.1-2.33-6.1-6.42Zm4,13.54c0,1.83.8,2.52,2.08,2.52s2.08-.69,2.08-2.52V40.33c0-1.82-.8-2.52-2.08-2.52s-2.08.7-2.08,2.52Z" transform="translate(-6.36 -3.6)"/><path class="cls-1" d="M105.41,34.46h12.41v3.65h-4.2V60h-4V38.11h-4.2Z" transform="translate(-6.36 -3.6)"/><path class="cls-1" d="M122.89,45.23h5.52v3.65h-5.52v7.48h6.94V60h-11V34.46h11v3.65h-6.94Z" transform="translate(-6.36 -3.6)"/><path class="cls-1" d="M137,34.16c3.91,0,5.92,2.34,5.92,6.43v.8h-3.8V40.33c0-1.82-.73-2.52-2-2.52s-2,.7-2,2.52.81,3.25,3.44,5.55c3.36,3,4.41,5.08,4.41,8,0,4.09-2,6.42-6,6.42s-6-2.33-6-6.42V52.31h3.8v1.82c0,1.83.8,2.49,2.08,2.49S139,56,139,54.13s-.81-3.25-3.43-5.55c-3.36-2.95-4.42-5.07-4.42-8C131.11,36.5,133.12,34.16,137,34.16Z" transform="translate(-6.36 -3.6)"/><path class="cls-1" d="M143.41,34.46h12.42v3.65h-4.2V60h-4V38.11h-4.2Z" transform="translate(-6.36 -3.6)"/><path class="cls-1" d="M156.56,40.59c0-4.09,2.15-6.43,6.09-6.43s6.1,2.34,6.1,6.43V53.88c0,4.09-2.16,6.42-6.1,6.42s-6.09-2.33-6.09-6.42Zm4,13.54c0,1.83.8,2.52,2.08,2.52s2.08-.69,2.08-2.52V40.33c0-1.82-.8-2.52-2.08-2.52s-2.08.7-2.08,2.52Z" transform="translate(-6.36 -3.6)"/><path class="cls-1" d="M6.36,70.8H8.18V82.37H6.36Z" transform="translate(-6.36 -3.6)"/><path class="cls-1" d="M12.63,74h0v8.38H11V70.8h2.28l1.84,6.93h0V70.8h1.62V82.37H14.86Z" transform="translate(-6.36 -3.6)"/><path class="cls-1" d="M22,70.67c1.77,0,2.68,1.06,2.68,2.91v.36H22.91v-.48c0-.82-.33-1.14-.91-1.14s-.91.32-.91,1.14.37,1.48,1.56,2.52c1.52,1.34,2,2.29,2,3.62,0,1.85-.93,2.91-2.71,2.91s-2.71-1.06-2.71-2.91v-.71h1.71v.82c0,.83.37,1.13.95,1.13s.94-.3.94-1.13-.36-1.47-1.56-2.51c-1.52-1.34-2-2.3-2-3.62C19.27,71.73,20.18,70.67,22,70.67Z" transform="translate(-6.36 -3.6)"/><path class="cls-1" d="M26.63,70.8h5.62v1.66h-1.9v9.91H28.53V72.46h-1.9Z" transform="translate(-6.36 -3.6)"/><path class="cls-1" d="M34.52,70.8h1.82V82.37H34.52Z" transform="translate(-6.36 -3.6)"/><path class="cls-1" d="M38.6,70.8h5.62v1.66h-1.9v9.91H40.5V72.46H38.6Z" transform="translate(-6.36 -3.6)"/><path class="cls-1" d="M48.22,70.8v8.93c0,.82.37,1.12,1,1.12s.94-.3.94-1.12V70.8h1.72v8.81c0,1.85-.93,2.91-2.71,2.91s-2.71-1.06-2.71-2.91V70.8Z" transform="translate(-6.36 -3.6)"/><path class="cls-1" d="M54,70.8h5.62v1.66h-1.9v9.91H55.91V72.46H54Z" transform="translate(-6.36 -3.6)"/><path class="cls-1" d="M61.75,73.58c0-1.85,1-2.91,2.76-2.91s2.76,1.06,2.76,2.91v6c0,1.85-1,2.91-2.76,2.91s-2.76-1.06-2.76-2.91Zm1.82,6.13c0,.83.36,1.14.94,1.14s.94-.31.94-1.14V73.46c0-.82-.36-1.14-.94-1.14s-.94.32-.94,1.14Z" transform="translate(-6.36 -3.6)"/><path class="cls-1" d="M74,70.8h2.88c1.81,0,2.71,1,2.71,2.86v5.85c0,1.85-.9,2.86-2.71,2.86H74Zm1.82,1.66v8.26h1c.58,0,.93-.3.93-1.12v-6c0-.83-.35-1.12-.93-1.12Z" transform="translate(-6.36 -3.6)"/><path class="cls-1" d="M84,75.68h2.49v1.65H84v3.39h3.14v1.65h-5V70.8h5v1.66H84Z" transform="translate(-6.36 -3.6)"/><path class="cls-1" d="M99.15,73.66v1.51c0,1.85-.9,2.86-2.71,2.86h-.86v4.34H93.76V70.8h2.68C98.25,70.8,99.15,71.81,99.15,73.66Zm-3.57-1.2v3.91h.86c.57,0,.89-.26.89-1.09V73.55c0-.83-.32-1.09-.89-1.09Z" transform="translate(-6.36 -3.6)"/><path class="cls-1" d="M105.26,82.37A3.56,3.56,0,0,1,105.1,81V79.13c0-1.07-.36-1.47-1.19-1.47h-.63v4.71h-1.82V70.8h2.75c1.88,0,2.69.88,2.69,2.66v.91a2.28,2.28,0,0,1-1.19,2.33v0c.91.38,1.21,1.24,1.21,2.44V81a3.26,3.26,0,0,0,.2,1.4Zm-2-9.91V76H104c.68,0,1.09-.3,1.09-1.22V73.65c0-.83-.28-1.19-.92-1.19Z" transform="translate(-6.36 -3.6)"/><path class="cls-1" d="M109.43,73.58c0-1.85,1-2.91,2.76-2.91S115,71.73,115,73.58v6c0,1.85-1,2.91-2.76,2.91s-2.76-1.06-2.76-2.91Zm1.82,6.13c0,.83.36,1.14.94,1.14s.94-.31.94-1.14V73.46c0-.82-.36-1.14-.94-1.14s-.94.32-.94,1.14Z" transform="translate(-6.36 -3.6)"/><path class="cls-1" d="M117.07,70.8h5.62v1.66h-1.9v9.91H119V72.46h-1.9Z" transform="translate(-6.36 -3.6)"/><path class="cls-1" d="M126.77,75.68h2.5v1.65h-2.5v3.39h3.14v1.65h-5V70.8h5v1.66h-3.14Z" transform="translate(-6.36 -3.6)"/><path class="cls-1" d="M135,70.67c1.77,0,2.68,1.06,2.68,2.91v.36h-1.72v-.48c0-.82-.33-1.14-.91-1.14s-.91.32-.91,1.14.36,1.48,1.55,2.52c1.52,1.34,2,2.29,2,3.62,0,1.85-.92,2.91-2.71,2.91s-2.71-1.06-2.71-2.91v-.71H134v.82c0,.83.36,1.13.94,1.13s.94-.3.94-1.13-.36-1.47-1.55-2.51c-1.52-1.34-2-2.3-2-3.62C132.28,71.73,133.19,70.67,135,70.67Z" transform="translate(-6.36 -3.6)"/><path class="cls-1" d="M139.64,70.8h5.62v1.66h-1.9v9.91h-1.82V72.46h-1.9Z" transform="translate(-6.36 -3.6)"/><path class="cls-1" d="M147.38,73.58c0-1.85,1-2.91,2.76-2.91s2.76,1.06,2.76,2.91v6c0,1.85-1,2.91-2.76,2.91s-2.76-1.06-2.76-2.91Zm1.81,6.13c0,.83.37,1.14.95,1.14s.94-.31.94-1.14V73.46c0-.82-.37-1.14-.94-1.14s-.95.32-.95,1.14Z" transform="translate(-6.36 -3.6)"/><path class="cls-1" d="M158.1,75.76h6.24v1.65H158.1Z" transform="translate(-6.36 -3.6)"/><path class="cls-1" d="M169.55,70.8h1.81V82.37h-1.81Z" transform="translate(-6.36 -3.6)"/><path class="cls-1" d="M176,75.68h2.49v1.65H176v3.39h3.14v1.65h-5V70.8h5v1.66H176Z" transform="translate(-6.36 -3.6)"/><path class="cls-1" d="M187.1,73.66v1.51c0,1.85-.89,2.86-2.71,2.86h-.86v4.34h-1.82V70.8h2.68C186.21,70.8,187.1,71.81,187.1,73.66Zm-3.57-1.2v3.91h.86c.58,0,.89-.26.89-1.09V73.55c0-.83-.31-1.09-.89-1.09Z" transform="translate(-6.36 -3.6)"/><path class="cls-1" d="M188.89,70.8h5.62v1.66h-1.9v9.91h-1.82V72.46h-1.9Z" transform="translate(-6.36 -3.6)"/><path class="cls-1" d="M202.21,73.46v.42A2.24,2.24,0,0,1,201,76.19v0a2.32,2.32,0,0,1,1.36,2.47v.94a2.46,2.46,0,0,1-2.76,2.74h-2.86V70.8h2.74C201.4,70.8,202.21,71.68,202.21,73.46Zm-3.62-1v3.05h.72c.67,0,1.09-.29,1.09-1.22v-.64c0-.83-.28-1.19-.93-1.19Zm0,4.71v3.55h1c.61,0,.94-.28.94-1.14v-1c0-1.07-.35-1.4-1.18-1.4Z" transform="translate(-6.36 -3.6)"/><rect class="cls-1" y="61.17" width="196.03" height="1.27"/><path class="cls-1" d="M27.66,49.29,17.2,25.71c10.84-4.2,12.37,8.38,12.37,8.38S40.07,20.39,51,8.25a8.94,8.94,0,0,0-1.17-.09h-35a8.43,8.43,0,0,0-8.43,8.42v35A8.43,8.43,0,0,0,14.79,60h35a8.42,8.42,0,0,0,8.42-8.42v-35A8.4,8.4,0,0,0,56.83,12Z" transform="translate(-6.36 -3.6)"/><path class="cls-1" d="M185.44,44.32v-.81c0-1-.36-1.51-1.17-1.51h-1.11v3.87h.9C184.91,45.87,185.44,45.5,185.44,44.32Z" transform="translate(-6.36 -3.6)"/><path class="cls-1" d="M184.18,48h-1v4.5h1.32c.77,0,1.19-.35,1.19-1.44V49.74C185.67,48.38,185.23,48,184.18,48Z" transform="translate(-6.36 -3.6)"/><path class="cls-1" d="M193.55,42h-1.1v4.5h.89c.86,0,1.39-.38,1.39-1.55V43.51C194.73,42.46,194.37,42,193.55,42Z" transform="translate(-6.36 -3.6)"/><path class="cls-1" d="M175.76,34.45V60H202.4V34.45ZM188,51.08c0,2.26-1.19,3.47-3.49,3.47h-3.62V39.91h3.47c2.38,0,3.41,1.11,3.41,3.37v.52c0,1.51-.46,2.45-1.49,2.93v0c1.24.48,1.72,1.57,1.72,3.12Zm7,3.47a4.34,4.34,0,0,1-.21-1.79V50.45c0-1.36-.46-1.86-1.51-1.86h-.79v6h-2.31V39.91h3.48C196,39.91,197,41,197,43.28v1.15c0,1.51-.48,2.47-1.51,3v0c1.15.48,1.53,1.57,1.53,3.1v2.26a4.27,4.27,0,0,0,.25,1.77Z" transform="translate(-6.36 -3.6)"/></svg>